<svg xmlns="http://www.w3.org/2000/svg" viewBox="0 0 600 600"><g id="Layer_1" data-name="Layer 1"><path d="M300,30A270.08,270.08,0,0,1,405.09,548.79,270.07,270.07,0,0,1,194.91,51.21,268.16,268.16,0,0,1,300,30m0-30C134.31,0,0,134.31,0,300S134.31,600,300,600,600,465.69,600,300,465.69,0,300,0Z"/></g><g id="Layer_5" data-name="Layer 5"><path class="cls-1" d="M102.56,208.29l164.88,68.29a7,7,0,0,0,9.14-9.14L208.29,102.56A7,7,0,0,0,198.71,99,226,226,0,0,0,99,198.71,7,7,0,0,0,102.56,208.29Zm59.2-46.53c3.91-3.9,17.28,3.14,29.88,15.73s19.63,26,15.73,29.88-17.28-3.14-29.88-15.73S157.86,165.67,161.76,161.76Z"/><path class="cls-1" d="M293.54,260.42a7,7,0,0,0,12.92,0l68.31-164.9a7,7,0,0,0-4.23-9.31,226.39,226.39,0,0,0-141.08,0,7,7,0,0,0-4.23,9.31ZM300,104.5c5.52,0,10,14.44,10,32.25S305.52,169,300,169s-10-14.44-10-32.25S294.48,104.5,300,104.5Z"/><path class="cls-1" d="M332.56,276.58l164.88-68.3a7,7,0,0,0,3.59-9.57A226,226,0,0,0,401.29,99a7,7,0,0,0-9.58,3.59L323.42,267.44A7,7,0,0,0,332.56,276.58Zm75.8-99.09c12.6-12.59,26-19.63,29.88-15.73S435.1,179,422.51,191.64s-26,19.63-29.88,15.73S395.77,190.09,408.36,177.49Z"/><path class="cls-1" d="M513.79,229.46a7,7,0,0,0-9.31-4.23l-164.9,68.31a7,7,0,0,0,0,12.92l164.9,68.31a7,7,0,0,0,9.31-4.23,226.39,226.39,0,0,0,0-141.08ZM463.25,310c-17.81,0-32.25-4.48-32.25-10s14.44-10,32.25-10,32.25,4.48,32.25,10S481.06,310,463.25,310Z"/><path class="cls-1" d="M260.42,293.54,95.52,225.23a7,7,0,0,0-9.31,4.23,226.39,226.39,0,0,0,0,141.08,7,7,0,0,0,9.31,4.23l164.9-68.31A7,7,0,0,0,260.42,293.54ZM136.75,310c-17.81,0-32.25-4.48-32.25-10s14.44-10,32.25-10S169,294.48,169,300,154.56,310,136.75,310Z"/><path class="cls-1" d="M497.44,391.72l-164.88-68.3a7,7,0,0,0-9.14,9.14l68.3,164.88a7,7,0,0,0,9.57,3.59A226,226,0,0,0,501,401.29,7,7,0,0,0,497.44,391.72Zm-59.2,46.52c-3.91,3.9-17.28-3.14-29.88-15.73s-19.63-26-15.73-29.88,17.28,3.14,29.88,15.73S442.14,434.33,438.24,438.24Z"/><path class="cls-1" d="M306.46,339.58a7,7,0,0,0-12.92,0l-68.31,164.9a7,7,0,0,0,4.23,9.31,226.39,226.39,0,0,0,141.08,0,7,7,0,0,0,4.23-9.31ZM300,495.5c-5.52,0-10-14.44-10-32.25S294.48,431,300,431s10,14.44,10,32.25S305.52,495.5,300,495.5Z"/><path class="cls-1" d="M267.44,323.42,102.56,391.71A7,7,0,0,0,99,401.29,226,226,0,0,0,198.71,501a7,7,0,0,0,9.57-3.59l68.3-164.88A7,7,0,0,0,267.44,323.42Zm-75.8,99.09c-12.6,12.59-26,19.63-29.88,15.73s3.14-17.28,15.73-29.88,26-19.63,29.88-15.73S204.23,409.91,191.64,422.51Z"/></g></svg>