<svg xmlns="http://www.w3.org/2000/svg" viewBox="0 0 1917.13 226"><defs><style>.cls-1{fill:none;}</style></defs><g id="Layer_1" data-name="Layer 1"><path d="M10.54,195.57V32.09H54.92V159.81H121v35.76Z"/><path d="M138.9,195.57V32.09H256.73V67.85H183.28V96h67.38v35.76H183.28v28.1h73.13v35.76Z"/><path d="M278.76,32.09H334l38,92.6h1.91l38-92.6h55.24V195.57H423.72V101.06h-1.27l-36.4,93.24H359.86l-36.4-93.88h-1.28v95.15H278.76Z"/><path d="M646.6,113.83q0,27.3-10.61,46a71,71,0,0,1-28.66,28.34q-18,9.62-40.24,9.62-22.35,0-40.35-9.7a71.3,71.3,0,0,1-28.58-28.42Q487.59,141,487.59,113.83q0-27.3,10.57-46a70.72,70.72,0,0,1,28.58-28.34q18-9.61,40.35-9.62,22.2,0,40.24,9.62A71,71,0,0,1,636,67.81Q646.59,86.53,646.6,113.83Zm-45.66,0q0-14.68-3.87-24.79T585.65,73.72q-7.54-5.23-18.56-5.23t-18.56,5.23Q541,78.94,537.12,89t-3.87,24.79q0,14.69,3.87,24.79t11.41,15.32q7.54,5.24,18.56,5.23t18.56-5.23q7.54-5.22,11.42-15.32T600.94,113.83Z"/><path d="M808.49,32.09V195.57h-37l-59.07-85.89h-1v85.89H667V32.09h37.67l58.12,85.57h1.28V32.09Z"/><path d="M962.4,83.18q-.64-8-5.95-12.46t-16.09-4.47a32.34,32.34,0,0,0-11.21,1.64,13.83,13.83,0,0,0-6.43,4.43,10.84,10.84,0,0,0-2.15,6.39,10,10,0,0,0,1.07,5.3,12.14,12.14,0,0,0,4,4.24,29.92,29.92,0,0,0,6.94,3.39,74.93,74.93,0,0,0,10.06,2.71L956,97.23a100.53,100.53,0,0,1,23.23,7.58,55.62,55.62,0,0,1,15.81,11.06,40.65,40.65,0,0,1,9.06,14.25,50.67,50.67,0,0,1,3,17.24q-.08,16.13-8.06,27.3t-22.79,17q-14.81,5.84-35.57,5.83-21.31,0-37.16-6.31t-24.58-19.43q-8.75-13.14-8.82-33.65h42.14A25,25,0,0,0,916,150.71a20.72,20.72,0,0,0,9.46,7.74A36.52,36.52,0,0,0,940,161.09a34.86,34.86,0,0,0,11.9-1.76,16,16,0,0,0,7.26-4.87,11.45,11.45,0,0,0,2.56-7.1,10.36,10.36,0,0,0-2.44-6.59q-2.36-2.84-7.7-5.11a84.89,84.89,0,0,0-14.45-4.27l-16.28-3.51q-21.72-4.71-34.21-15.77T874.27,81.9q-.09-15.57,8.34-27.26T906,36.4q15-6.55,34.36-6.55,19.8,0,34.25,6.63t22.31,18.64q7.86,12,8,28.06Z"/><path d="M1019.55,67.85V32.09h142.1V67.85h-49.18V195.57h-43.74V67.85Z"/><path d="M1200,195.57h-47.89l54-163.48h60.67l54,163.48h-47.89L1237,77.11h-1.27Zm-8.94-64.5h90v33.21h-90Z"/><path d="M1336.31,195.57V32.09h70.57q18.19,0,31.85,6.62A49.66,49.66,0,0,1,1460,57.79q7.59,12.45,7.58,29.86t-7.78,29.61a48.26,48.26,0,0,1-21.79,18.2q-14,6.15-32.69,6.15h-42.15V107.12h33.21a40.52,40.52,0,0,0,13.37-2,16.82,16.82,0,0,0,8.54-6.27q3-4.31,3-11.25t-3-11.46a17.5,17.5,0,0,0-8.54-6.54,37.62,37.62,0,0,0-13.37-2.12h-15.65v128Zm95.79-75,40.87,75h-48.21l-39.92-75Z"/><path d="M1481.91,67.85V32.09H1624V67.85h-49.18V195.57h-43.74V67.85Z"/><path d="M1640.61,195.57V32.09h117.82V67.85H1685V96h67.38v35.76H1685v28.1h73.12v35.76Z"/><path d="M1780.46,195.57V32.09H1851q18.21,0,31.85,6.62a49.68,49.68,0,0,1,21.24,19.08q7.58,12.45,7.58,29.86t-7.78,29.61a48.28,48.28,0,0,1-21.8,18.2q-14,6.15-32.69,6.15h-42.14V107.12h33.2a40.55,40.55,0,0,0,13.38-2,16.87,16.87,0,0,0,8.54-6.27q3-4.31,3-11.25t-3-11.46a17.55,17.55,0,0,0-8.54-6.54,37.64,37.64,0,0,0-13.38-2.12h-15.64v128Zm95.8-75,40.87,75h-48.22l-39.91-75Z"/></g><g id="Layer_2" data-name="Layer 2"><rect class="cls-1" width="1917" height="226"/></g></svg>