<svg id="Layer_1" data-name="Layer 1" xmlns="http://www.w3.org/2000/svg" viewBox="0 0 1918.51 169.01"><path d="M.6,165.4V.89H45.27V129.42h66.51v36Z" transform="translate(-0.6 1.36)"/><path d="M129.77,165.4V.89H248.33v36h-73.9V65.15h67.8v36h-67.8v28.28H248v36Z" transform="translate(-0.6 1.36)"/><path d="M270.5.89h55.58l38.24,93.18h1.93L404.48.89h55.59V165.4h-43.7V70.29h-1.28l-36.63,93.83H352.11L315.48,69.65H314.2V165.4H270.5Z" transform="translate(-0.6 1.36)"/><path d="M640.64,83.15q0,27.46-10.68,46.31A71.33,71.33,0,0,1,601.12,158q-18.15,9.69-40.48,9.68-22.5,0-40.61-9.76a71.72,71.72,0,0,1-28.75-28.6q-10.65-18.82-10.65-46.14,0-27.48,10.65-46.31A71.2,71.2,0,0,1,520,8.32q18.12-9.68,40.61-9.68,22.33,0,40.48,9.68A71.35,71.35,0,0,1,630,36.84Q640.64,55.68,640.64,83.15Zm-45.94,0q0-14.79-3.9-24.94T579.31,42.78q-7.59-5.25-18.67-5.26T542,42.78Q534.37,48,530.48,58.21t-3.9,24.94q0,14.77,3.9,24.94T542,123.51q7.59,5.26,18.68,5.26t18.67-5.26q7.61-5.26,11.49-15.42T594.7,83.15Z" transform="translate(-0.6 1.36)"/><path d="M803.54.89V165.4H766.27L706.83,79h-1V165.4H661.21V.89h37.91L757.6,87h1.28V.89Z" transform="translate(-0.6 1.36)"/><path d="M958.41,52.3q-.64-8-6-12.53t-16.19-4.5A32.43,32.43,0,0,0,925,36.92a13.83,13.83,0,0,0-6.47,4.46,10.88,10.88,0,0,0-2.17,6.42,10,10,0,0,0,1.09,5.34,12,12,0,0,0,4,4.26,30.35,30.35,0,0,0,7,3.42,77.33,77.33,0,0,0,10.12,2.73L952,66.44a101.58,101.58,0,0,1,23.37,7.63A56.18,56.18,0,0,1,991.27,85.2a40.58,40.58,0,0,1,9.11,14.33,51.11,51.11,0,0,1,3,17.35q-.09,16.23-8.12,27.48t-22.93,17.11q-14.9,5.86-35.79,5.86-21.43,0-37.39-6.35t-24.74-19.56q-8.79-13.2-8.88-33.85H908a25.09,25.09,0,0,0,3.77,12.69,21,21,0,0,0,9.52,7.79,36.81,36.81,0,0,0,14.66,2.65,35,35,0,0,0,12-1.77,16.1,16.1,0,0,0,7.31-4.9,11.54,11.54,0,0,0,2.57-7.15,10.4,10.4,0,0,0-2.45-6.62q-2.37-2.85-7.75-5.14a84.73,84.73,0,0,0-14.54-4.3l-16.39-3.54q-21.84-4.73-34.42-15.86T869.73,51q-.08-15.68,8.4-27.44T901.66,5.23q15.06-6.59,34.58-6.59,19.92,0,34.46,6.67t22.45,18.76q7.92,12.09,8,28.23Z" transform="translate(-0.6 1.36)"/><path d="M1015.92,36.88V.89h143v36h-49.49V165.4h-44V36.88Z" transform="translate(-0.6 1.36)"/><path d="M1197.46,165.4h-48.19L1203.57.89h61l54.3,164.51h-48.2l-36-119.2h-1.29Zm-9-64.9h90.61v33.41h-90.61Z" transform="translate(-0.6 1.36)"/><path d="M1334.66,165.4V.89h71q18.32,0,32,6.67a49.86,49.86,0,0,1,21.37,19.2q7.62,12.52,7.63,30,0,17.67-7.83,29.8A48.7,48.7,0,0,1,1437,104.92q-14.1,6.18-32.9,6.18h-42.41V76.4h33.42a40.69,40.69,0,0,0,13.45-2,17,17,0,0,0,8.6-6.3q3-4.35,3-11.33t-3-11.53a17.57,17.57,0,0,0-8.6-6.58,37.81,37.81,0,0,0-13.45-2.13h-15.75V165.4Zm96.39-75.51,41.13,75.51h-48.52L1383.5,89.89Z" transform="translate(-0.6 1.36)"/><path d="M1481.17,36.88V.89h143v36h-49.49V165.4h-44V36.88Z" transform="translate(-0.6 1.36)"/><path d="M1640.86,165.4V.89h118.56v36h-73.9V65.15h67.8v36h-67.8v28.28h73.58v36Z" transform="translate(-0.6 1.36)"/><path d="M1781.59,165.4V.89h71q18.32,0,32.05,6.67A49.86,49.86,0,0,1,1906,26.76q7.63,12.52,7.63,30,0,17.67-7.83,29.8a48.65,48.65,0,0,1-21.93,18.32q-14.1,6.18-32.9,6.18h-42.41V76.4H1842a40.65,40.65,0,0,0,13.45-2,17,17,0,0,0,8.6-6.3q3-4.35,3-11.33t-3-11.53a17.57,17.57,0,0,0-8.6-6.58A37.77,37.77,0,0,0,1842,36.56h-15.75V165.4ZM1878,89.89l41.13,75.51h-48.52l-40.16-75.51Z" transform="translate(-0.6 1.36)"/></svg>